<?xml version="1.0" encoding="UTF-8" standalone="no"?>
<!-- Created with Inkscape (http://www.inkscape.org/) -->

<svg
   version="1.1"
   id="svg1"
   width="350"
   height="130"
   viewBox="0 0 350.00001 130"
   sodipodi:docname="chain.svg"
   inkscape:version="1.4.4 (dcaf3e7, 2026-05-05)"
   xmlns:inkscape="http://www.inkscape.org/namespaces/inkscape"
   xmlns:sodipodi="http://sodipodi.sourceforge.net/DTD/sodipodi-0.dtd"
   xmlns="http://www.w3.org/2000/svg"
   xmlns:svg="http://www.w3.org/2000/svg">
  <defs
     id="defs1">
    <clipPath
       clipPathUnits="userSpaceOnUse"
       id="clipPath319">
      <path
         d="m 575.00001,120 h 20 v 3 h -20 z"
         id="path319" />
    </clipPath>
  </defs>
  <sodipodi:namedview
     id="namedview1"
     pagecolor="#ffffff"
     bordercolor="#000000"
     borderopacity="0.25"
     inkscape:showpageshadow="2"
     inkscape:pageopacity="0.0"
     inkscape:pagecheckerboard="0"
     inkscape:deskcolor="#d1d1d1"
     inkscape:zoom="2.0785524"
     inkscape:cx="149.38281"
     inkscape:cy="-36.804461"
     inkscape:window-width="2560"
     inkscape:window-height="1369"
     inkscape:window-x="-8"
     inkscape:window-y="-8"
     inkscape:window-maximized="1"
     inkscape:current-layer="g1174" />
  <g
     id="g1174"
     inkscape:groupmode="layer"
     inkscape:label="chain"
     transform="translate(-1513.889,-218.04937)"
     style="display:inline">
    <path
       id="path1175"
       d="m 1551.3283,338.28132 1.6973,-3.03066 0.8027,-2.17733 0.52,-2.26134 0.2453,-3.468 -0.412,-3.45333 -1.0466,-3.31733 -1.6507,-3.05734 -2.1973,-2.69866 -2.6627,-2.23334 -3.036,-1.69866 -3.2973,-1.09867 -3.448,-0.464 -2.3174,0.0573 -2.296,0.344 -3.3133,1.052 -3.0627,1.65067 -2.692,2.19867 -2.24,2.66133 -1.6973,3.03067 -0.8027,2.17733 -0.5213,2.26 -0.244,3.46933 0.4107,3.45334 1.048,3.31733 1.6506,3.05733 2.1974,2.69733 2.6613,2.23467 3.0373,1.69867 3.296,1.09866 3.448,0.464 2.3187,-0.0573 2.296,-0.344 3.3133,-1.052 3.0627,-1.652 2.692,-2.19733 2.24,-2.66134"
       style="fill:none;stroke:#000000;stroke-width:1.5292;stroke-linecap:round;stroke-linejoin:round;stroke-miterlimit:10;stroke-dasharray:none;stroke-opacity:1" />
    <path
       id="path1176"
       d="m 1530.6563,327.36933 4.4587,-0.10934 2.796,-0.42666 1.2506,0.0307"
       style="fill:none;stroke:#000000;stroke-width:1.5292;stroke-linecap:round;stroke-linejoin:round;stroke-miterlimit:10;stroke-dasharray:none;stroke-opacity:1" />
    <path
       id="path1177"
       d="m 1536.531,323.50533 0.7453,4.98933 -0.104,2.932"
       style="fill:none;stroke:#000000;stroke-width:1.5292;stroke-linecap:round;stroke-linejoin:round;stroke-miterlimit:10;stroke-dasharray:none;stroke-opacity:1" />
    <path
       id="path1178"
       d="m 1659.0256,338.40132 1.6987,-3.032 0.8013,-2.17599 0.5214,-2.26134 0.244,-3.468 -0.4107,-3.45333 -1.0467,-3.31733 -1.652,-3.05734 -2.1973,-2.69866 -2.6613,-2.23467 -3.036,-1.69733 -3.2974,-1.09867 -3.448,-0.464 -2.3173,0.0573 -2.2973,0.344 -3.312,1.052 -3.0627,1.65067 -2.6933,2.19867 -2.2387,2.66133 -1.6987,3.03067 -0.8013,2.17733 -0.5213,2.26 -0.2454,3.46933 0.412,3.45334 1.0467,3.31733 1.6507,3.05733 2.1986,2.69733 2.6614,2.23467 3.036,1.69867 3.2973,1.09866 3.448,0.46267 2.3173,-0.0573 2.2974,-0.34267 3.312,-1.052 3.0626,-1.652 2.6934,-2.19733 2.2386,-2.66134"
       style="fill:none;stroke:#000000;stroke-width:1.5292;stroke-linecap:round;stroke-linejoin:round;stroke-miterlimit:10;stroke-dasharray:none;stroke-opacity:1" />
    <path
       id="path1179"
       d="m 1638.3536,327.48933 4.4587,-0.10934 2.7973,-0.42666 1.2494,0.0307"
       style="fill:none;stroke:#000000;stroke-width:1.5292;stroke-linecap:round;stroke-linejoin:round;stroke-miterlimit:10;stroke-dasharray:none;stroke-opacity:1" />
    <path
       id="path1180"
       d="m 1644.2296,323.62533 0.744,4.98933 -0.104,2.932"
       style="fill:none;stroke:#000000;stroke-width:1.5292;stroke-linecap:round;stroke-linejoin:round;stroke-miterlimit:10;stroke-dasharray:none;stroke-opacity:1" />
    <path
       id="path1181"
       d="m 1856.9576,337.46932 1.6987,-3.03733 0.8013,-2.17733 0.5267,-2.26 0.2453,-3.468 -0.412,-3.45333 -1.052,-3.31334 -1.6506,-3.06266 -2.1934,-2.692 -2.6666,-2.24 -3.0307,-1.69734 -3.3027,-1.09866 -3.4426,-0.45867 -2.3227,0.052 -2.292,0.34933 -3.3173,1.04667 -3.0574,1.65067 -2.6986,2.19733 -2.2334,2.66267 -1.6986,3.036 -0.8014,2.17733 -0.5213,2.26 -0.2453,3.46933 0.4066,3.452 1.052,3.31334 1.6507,3.06266 2.1987,2.692 2.6613,2.24 3.036,1.69733 3.2973,1.1 3.448,0.45734 2.3174,-0.052 2.292,-0.348 3.3173,-1.048 3.0573,-1.65067 2.6987,-2.19733 2.2333,-2.66134"
       style="fill:none;stroke:#000000;stroke-width:1.5292;stroke-linecap:round;stroke-linejoin:round;stroke-miterlimit:10;stroke-dasharray:none;stroke-opacity:1" />
    <path
       id="path1182"
       d="m 1836.291,326.55199 4.4533,-0.104 2.8027,-0.432 1.2493,0.0307"
       style="fill:none;stroke:#000000;stroke-width:1.5292;stroke-linecap:round;stroke-linejoin:round;stroke-miterlimit:10;stroke-dasharray:none;stroke-opacity:1" />
    <path
       id="path1183"
       d="m 1842.1616,322.68799 0.744,4.98934 -0.104,2.93733"
       style="fill:none;stroke:#000000;stroke-width:1.5292;stroke-linecap:round;stroke-linejoin:round;stroke-miterlimit:10;stroke-dasharray:none;stroke-opacity:1" />
    <path
       id="path1184"
       d="M 1535.2816,321.01066 V 272.16133"
       style="fill:none;stroke:#000000;stroke-width:1.5292;stroke-linecap:round;stroke-linejoin:round;stroke-miterlimit:10;stroke-dasharray:none;stroke-opacity:1" />
    <path
       id="path1185"
       d="M 1644.4536,319.73466 V 272.58399"
       style="fill:none;stroke:#000000;stroke-width:1.5292;stroke-linecap:round;stroke-linejoin:round;stroke-miterlimit:10;stroke-dasharray:none;stroke-opacity:1" />
    <path
       id="path1186"
       d="m 1841.547,318.03599 v -44.604"
       style="fill:none;stroke:#000000;stroke-width:1.5292;stroke-linecap:round;stroke-linejoin:round;stroke-miterlimit:10;stroke-dasharray:none;stroke-opacity:1" />
    <path
       id="path1187"
       d="m 1748.3443,336.53599 1.6973,-3.03066 0.8014,-2.17734 0.5213,-2.26 0.2453,-3.46933 -0.412,-3.45333 -1.0466,-3.312 -1.6507,-3.06267 -2.1987,-2.69733 -2.6613,-2.23467 -3.036,-1.69867 -3.2973,-1.09866 -3.448,-0.46267 -2.3174,0.0573 -2.2973,0.34267 -3.312,1.052 -3.0627,1.652 -2.6933,2.19733 -2.2387,2.66134 -1.6986,3.03733 -0.8014,2.176 -0.5213,2.256 -0.244,3.468 0.4107,3.45333 1.0466,3.31867 1.652,3.056 2.1974,2.69866 2.6613,2.23467 3.0373,1.69733 3.296,1.09867 3.448,0.464 2.3174,-0.0573 2.2973,-0.344 3.312,-1.04667 3.0627,-1.656 2.6933,-2.19333 2.24,-2.66667"
       style="fill:none;stroke:#000000;stroke-width:1.5292;stroke-linecap:round;stroke-linejoin:round;stroke-miterlimit:10;stroke-dasharray:none;stroke-opacity:1" />
    <path
       id="path1188"
       d="m 1727.6723,325.62533 4.4573,-0.10934 2.8027,-0.428 1.244,0.032"
       style="fill:none;stroke:#000000;stroke-width:1.5292;stroke-linecap:round;stroke-linejoin:round;stroke-miterlimit:10;stroke-dasharray:none;stroke-opacity:1" />
    <path
       id="path1189"
       d="m 1733.547,321.75999 0.744,4.98934 -0.104,2.93333"
       style="fill:none;stroke:#000000;stroke-width:1.5292;stroke-linecap:round;stroke-linejoin:round;stroke-miterlimit:10;stroke-dasharray:none;stroke-opacity:1" />
    <path
       id="path1190"
       d="M 1734.135,316.44799 V 271.42133"
       style="fill:none;stroke:#000000;stroke-width:1.5292;stroke-linecap:round;stroke-linejoin:round;stroke-miterlimit:10;stroke-dasharray:none;stroke-opacity:1" />
    <path
       id="path1191"
       d="m 1538.255,291.27599 h 302.0213"
       style="fill:none;stroke:#000000;stroke-width:1.5292;stroke-linecap:round;stroke-linejoin:round;stroke-miterlimit:10;stroke-dasharray:none;stroke-opacity:1" />
    <path
       id="path1192"
       d="m 1541.891,288.49999 -0.021,-0.10933 -0.2973,0.0787 -1.7653,1.088 -0.5467,-0.052 -1.2347,0.468 1.0374,-0.14 2.8946,-1.10934 1.2094,-0.0307 0.3066,-0.224 -4.8333,2.14 -0.6667,-0.0787 -0.2866,0.224 -0.14,0.64667 0.24,0.416 0.5146,0.45333 1.9067,0.76533 1.0987,0.27067 0.7973,0.72 0.2547,0.0987 0.1413,-0.11467 0.052,-0.308 -0.5267,-0.61467 -1.208,-0.49466 -0.9946,-0.70267 -0.8387,-0.292"
       style="fill:none;stroke:#000000;stroke-width:1.5292;stroke-linecap:round;stroke-linejoin:round;stroke-miterlimit:10;stroke-dasharray:none;stroke-opacity:1" />
    <path
       id="path1193"
       d="m 1638.0003,289.02666 1.6147,0.968 1.656,0.636 0.844,0.036 0.7333,-0.15067 0.9013,0.18134 -0.244,0.0427 -0.136,0.56267 -0.8333,0.73333 -0.9693,0.38 -3.228,0.82934 -0.6307,0.0413 -0.3333,-0.14133 -0.2027,0.49066 0.5253,-0.51066 1.964,-1.05734 2.7347,-0.36533 -4.772,-1.55733 -3.604,-0.744"
       style="fill:none;stroke:#000000;stroke-width:1.5292;stroke-linecap:round;stroke-linejoin:round;stroke-miterlimit:10;stroke-dasharray:none;stroke-opacity:1" />
    <path
       id="path1194"
       d="m 1736.5363,289.67733 0.3747,0.068 2.6933,-0.71867 2.656,-0.93867 1.052,-0.54133 -0.9587,0.568 -1.0626,0.416 -4.5934,1.50533 -1.2813,0.28667 0.1413,0.844 0.8694,0.71333 1.9693,0.89067 1.2133,1.28667 1.4787,0.79733 0.7867,-0.12533 -1.208,-1.83334 -1.9947,-1.16666 -2.136,-0.98934 3.1307,-0.11466 1.4,-0.31334 0.4333,-0.34266"
       style="fill:none;stroke:#000000;stroke-width:1.5292;stroke-linecap:round;stroke-linejoin:round;stroke-miterlimit:10;stroke-dasharray:none;stroke-opacity:1" />
    <path
       id="path1195"
       d="m 1840.0363,289.60933 0.093,-0.0827 -0.2333,-0.048 -1.8653,-0.009 -1.2187,-0.224 -3.948,-0.188 -1.1307,-0.22934 1.1,0.005 2.276,0.604 1.9627,-0.0213 1.2293,0.50534 1,0.56266 0.1987,0.25067 -0.8547,0.36933 -3.3226,0.532 -3.068,0.94267 -0.412,1.224 2.824,-1.64667 4.8173,-1.11466 -0.292,0.0213 -0.072,-0.72933 -0.324,-0.17734 -3.3387,-1.27066 -2.0253,-1.10934 -0.6413,0.104 2.5,1.04134 1.0786,0.0213 2.2134,0.776 0.8226,0.0987 -1.9946,1.068 -2.276,0.656 -0.9427,0.13066 -1.328,0.50534 -0.1253,0.33333 -0.3947,0.296 -0.3547,0.96933 1.172,-0.70266 1.3747,-0.60934 5.208,-1.49066"
       style="fill:none;stroke:#000000;stroke-width:1.5292;stroke-linecap:round;stroke-linejoin:round;stroke-miterlimit:10;stroke-dasharray:none;stroke-opacity:1" />
    <path
       id="path1239"
       d="m 1535.0723,256.28666 h 0.032"
       style="fill:none;stroke:#dc2626;stroke-width:3.02363;stroke-linecap:round;stroke-linejoin:round;stroke-miterlimit:10;stroke-dasharray:none;stroke-opacity:1" />
    <path
       id="path1240"
       d="m 1535.1043,256.28666 h 0.093"
       style="fill:none;stroke:#dc2626;stroke-width:3.02363;stroke-linecap:round;stroke-linejoin:round;stroke-miterlimit:10;stroke-dasharray:none;stroke-opacity:1" />
    <path
       id="path1241"
       d="m 1535.1976,256.28666 h 0.1094"
       style="fill:none;stroke:#dc2626;stroke-width:3.02363;stroke-linecap:round;stroke-linejoin:round;stroke-miterlimit:10;stroke-dasharray:none;stroke-opacity:1" />
    <path
       id="path1242"
       d="m 1535.307,256.28666 h 0.672"
       style="fill:none;stroke:#dc2626;stroke-width:3.02363;stroke-linecap:round;stroke-linejoin:round;stroke-miterlimit:10;stroke-dasharray:none;stroke-opacity:1" />
    <path
       id="path1243"
       d="m 1535.979,256.28666 h 0.808"
       style="fill:none;stroke:#dc2626;stroke-width:3.02363;stroke-linecap:round;stroke-linejoin:round;stroke-miterlimit:10;stroke-dasharray:none;stroke-opacity:1" />
    <path
       id="path1244"
       d="m 1536.787,256.28666 h 0.708"
       style="fill:none;stroke:#dc2626;stroke-width:3.02363;stroke-linecap:round;stroke-linejoin:round;stroke-miterlimit:10;stroke-dasharray:none;stroke-opacity:1" />
    <path
       id="path1245"
       d="m 1537.495,256.28666 h 0.7493"
       style="fill:none;stroke:#dc2626;stroke-width:3.02363;stroke-linecap:round;stroke-linejoin:round;stroke-miterlimit:10;stroke-dasharray:none;stroke-opacity:1" />
    <path
       id="path1246"
       d="m 1538.2443,256.28666 h 0.6253"
       style="fill:none;stroke:#dc2626;stroke-width:3.02363;stroke-linecap:round;stroke-linejoin:round;stroke-miterlimit:10;stroke-dasharray:none;stroke-opacity:1" />
    <path
       id="path1247"
       d="m 1538.8696,256.28666 h 0.5734"
       style="fill:none;stroke:#dc2626;stroke-width:3.02363;stroke-linecap:round;stroke-linejoin:round;stroke-miterlimit:10;stroke-dasharray:none;stroke-opacity:1" />
    <path
       id="path1248"
       d="m 1539.443,256.28666 h 0.6293"
       style="fill:none;stroke:#dc2626;stroke-width:3.02363;stroke-linecap:round;stroke-linejoin:round;stroke-miterlimit:10;stroke-dasharray:none;stroke-opacity:1" />
    <path
       id="path1249"
       d="m 1540.0723,256.28666 h 0.5213"
       style="fill:none;stroke:#dc2626;stroke-width:3.02363;stroke-linecap:round;stroke-linejoin:round;stroke-miterlimit:10;stroke-dasharray:none;stroke-opacity:1" />
    <path
       id="path1250"
       d="m 1540.5936,256.28666 h 0.6254"
       style="fill:none;stroke:#dc2626;stroke-width:3.02363;stroke-linecap:round;stroke-linejoin:round;stroke-miterlimit:10;stroke-dasharray:none;stroke-opacity:1" />
    <path
       id="path1251"
       d="m 1541.219,256.28666 h 0.6866"
       style="fill:none;stroke:#dc2626;stroke-width:3.02363;stroke-linecap:round;stroke-linejoin:round;stroke-miterlimit:10;stroke-dasharray:none;stroke-opacity:1" />
    <path
       id="path1252"
       d="m 1541.9056,256.28666 h 0.756"
       style="fill:none;stroke:#dc2626;stroke-width:3.02363;stroke-linecap:round;stroke-linejoin:round;stroke-miterlimit:10;stroke-dasharray:none;stroke-opacity:1" />
    <path
       id="path1253"
       d="m 1542.6616,256.28666 h 0.9787"
       style="fill:none;stroke:#dc2626;stroke-width:3.02363;stroke-linecap:round;stroke-linejoin:round;stroke-miterlimit:10;stroke-dasharray:none;stroke-opacity:1" />
    <path
       id="path1254"
       d="m 1543.6403,256.28666 h 1.0053"
       style="fill:none;stroke:#dc2626;stroke-width:3.02363;stroke-linecap:round;stroke-linejoin:round;stroke-miterlimit:10;stroke-dasharray:none;stroke-opacity:1" />
    <path
       id="path1255"
       d="m 1544.6456,256.28666 h 1.0214"
       style="fill:none;stroke:#dc2626;stroke-width:3.02363;stroke-linecap:round;stroke-linejoin:round;stroke-miterlimit:10;stroke-dasharray:none;stroke-opacity:1" />
    <path
       id="path1256"
       d="m 1545.667,256.28666 h 1.124"
       style="fill:none;stroke:#dc2626;stroke-width:3.02363;stroke-linecap:round;stroke-linejoin:round;stroke-miterlimit:10;stroke-dasharray:none;stroke-opacity:1" />
    <path
       id="path1257"
       d="m 1546.791,256.28666 h 0.9226"
       style="fill:none;stroke:#dc2626;stroke-width:3.02363;stroke-linecap:round;stroke-linejoin:round;stroke-miterlimit:10;stroke-dasharray:none;stroke-opacity:1" />
    <path
       id="path1258"
       d="m 1547.7136,256.28666 h 0.7347"
       style="fill:none;stroke:#dc2626;stroke-width:3.02363;stroke-linecap:round;stroke-linejoin:round;stroke-miterlimit:10;stroke-dasharray:none;stroke-opacity:1" />
    <path
       id="path1439"
       d="m 1546.791,256.28666 h 290.724"
       style="fill:none;stroke:#dc2626;stroke-width:3.02362;stroke-linecap:round;stroke-linejoin:round;stroke-miterlimit:10;stroke-dasharray:none;stroke-opacity:1" />
    <path
       id="path1440"
       d="m 1537.391,255.72399 v -0.005 l -0.01,-0.005"
       style="fill:none;stroke:#dc2626;stroke-width:3.02363;stroke-linecap:round;stroke-linejoin:round;stroke-miterlimit:10;stroke-dasharray:none;stroke-opacity:1" />
    <path
       id="path1441"
       d="m 1537.3856,255.71333 -0.01,-0.005 0.24,-0.036"
       style="fill:none;stroke:#dc2626;stroke-width:3.02363;stroke-linecap:round;stroke-linejoin:round;stroke-miterlimit:10;stroke-dasharray:none;stroke-opacity:1" />
    <path
       id="path1442"
       d="m 1537.6203,255.67199 0.724,-0.172 0.9627,-0.28666 2.4266,-0.92134"
       style="fill:none;stroke:#dc2626;stroke-width:3.02363;stroke-linecap:round;stroke-linejoin:round;stroke-miterlimit:10;stroke-dasharray:none;stroke-opacity:1" />
    <path
       id="path1443"
       d="m 1541.7336,254.29199 2.3907,-0.308 h -0.031 l -0.088,0.0107"
       style="fill:none;stroke:#dc2626;stroke-width:3.02363;stroke-linecap:round;stroke-linejoin:round;stroke-miterlimit:10;stroke-dasharray:none;stroke-opacity:1" />
    <path
       id="path1444"
       d="m 1544.0056,253.99466 -0.4173,0.0107 -0.156,0.0413 -3.5,1.052"
       style="fill:none;stroke:#dc2626;stroke-width:3.02363;stroke-linecap:round;stroke-linejoin:round;stroke-miterlimit:10;stroke-dasharray:none;stroke-opacity:1" />
    <path
       id="path1445"
       d="m 1539.9323,255.09866 -1.8027,0.844 -1.0413,0.136 0.2507,0.052"
       style="fill:none;stroke:#dc2626;stroke-width:3.02363;stroke-linecap:round;stroke-linejoin:round;stroke-miterlimit:10;stroke-dasharray:none;stroke-opacity:1" />
    <path
       id="path1446"
       d="m 1537.339,256.13066 1.7906,1.06267 3.532,1.28533 0.916,0.63067"
       style="fill:none;stroke:#dc2626;stroke-width:3.02363;stroke-linecap:round;stroke-linejoin:round;stroke-miterlimit:10;stroke-dasharray:none;stroke-opacity:1" />
    <path
       id="path1448"
       d="m 1542.3283,258.21866 -3.6147,-1.136 -0.7293,0.016"
       style="fill:none;stroke:#dc2626;stroke-width:3.02363;stroke-linecap:round;stroke-linejoin:round;stroke-miterlimit:10;stroke-dasharray:none;stroke-opacity:1" />
    <path
       id="path1449"
       d="m 1837.2496,255.94799 0.047,0.0307 0.052,0.0427"
       style="fill:none;stroke:#dc2626;stroke-width:3.02363;stroke-linecap:round;stroke-linejoin:round;stroke-miterlimit:10;stroke-dasharray:none;stroke-opacity:1" />
    <path
       id="path1450"
       d="m 1837.3483,256.02133 0.027,0.02 -0.079,0.005 -0.1813,-0.0413"
       style="fill:none;stroke:#dc2626;stroke-width:3.02363;stroke-linecap:round;stroke-linejoin:round;stroke-miterlimit:10;stroke-dasharray:none;stroke-opacity:1" />
    <path
       id="path1451"
       d="m 1837.115,256.00533 -0.2454,-0.0573 -0.4373,-0.13066 -0.1827,-0.068"
       style="fill:none;stroke:#dc2626;stroke-width:3.02363;stroke-linecap:round;stroke-linejoin:round;stroke-miterlimit:10;stroke-dasharray:none;stroke-opacity:1" />
    <path
       id="path1452"
       d="m 1836.2496,255.74933 -0.64,-0.228 -1.276,-0.45867 -0.5733,-0.0987"
       style="fill:none;stroke:#dc2626;stroke-width:3.02363;stroke-linecap:round;stroke-linejoin:round;stroke-miterlimit:10;stroke-dasharray:none;stroke-opacity:1" />
    <path
       id="path1453"
       d="m 1833.7603,254.96399 -3.3027,-0.0213 -0.5146,-0.19333 1.8173,-0.24934"
       style="fill:none;stroke:#dc2626;stroke-width:3.02363;stroke-linecap:round;stroke-linejoin:round;stroke-miterlimit:10;stroke-dasharray:none;stroke-opacity:1" />
    <path
       id="path1454"
       d="m 1831.7603,254.49999 3.448,-0.0107 0.828,0.14133 0.8853,0.57733"
       style="fill:none;stroke:#dc2626;stroke-width:3.02363;stroke-linecap:round;stroke-linejoin:round;stroke-miterlimit:10;stroke-dasharray:none;stroke-opacity:1" />
    <path
       id="path1455"
       d="m 1836.9216,255.20799 -2.8386,-0.0573 -2.6974,-0.38533 -0.4013,-0.18134"
       style="fill:none;stroke:#dc2626;stroke-width:3.02363;stroke-linecap:round;stroke-linejoin:round;stroke-miterlimit:10;stroke-dasharray:none;stroke-opacity:1" />
    <path
       id="path1456"
       d="m 1830.9843,254.58399 -0.172,-0.14133 0.6773,0.14533 2.5254,1.15734"
       style="fill:none;stroke:#dc2626;stroke-width:3.02363;stroke-linecap:round;stroke-linejoin:round;stroke-miterlimit:10;stroke-dasharray:none;stroke-opacity:1" />
    <path
       id="path1457"
       d="m 1834.015,255.74533 0.9173,0.18666 1.8547,0.068 0.6453,0.432"
       style="fill:none;stroke:#dc2626;stroke-width:3.02363;stroke-linecap:round;stroke-linejoin:round;stroke-miterlimit:10;stroke-dasharray:none;stroke-opacity:1" />
    <path
       id="path1458"
       d="m 1837.4323,256.43199 1.3587,0.0627 0.5786,0.28667 -4.536,2.39066"
       style="fill:none;stroke:#dc2626;stroke-width:3.02363;stroke-linecap:round;stroke-linejoin:round;stroke-miterlimit:10;stroke-dasharray:none;stroke-opacity:1" />
    <path
       id="path1459"
       d="m 1834.8336,259.17199 -2.0893,1.78134 -1.5253,0.708 3.1973,-1.87467"
       style="fill:none;stroke:#dc2626;stroke-width:3.02363;stroke-linecap:round;stroke-linejoin:round;stroke-miterlimit:10;stroke-dasharray:none;stroke-opacity:1" />
    <path
       id="path1460"
       d="m 1834.4163,259.78666 3.9533,-2.08933 0.7814,-0.59334 0.1613,-0.33866"
       style="fill:none;stroke:#dc2626;stroke-width:3.02363;stroke-linecap:round;stroke-linejoin:round;stroke-miterlimit:10;stroke-dasharray:none;stroke-opacity:1" />
    <path
       id="path1461"
       d="m 1839.3123,256.76533 -1.9733,-0.984 -0.9227,-0.24534 -3.3067,-0.5"
       style="fill:none;stroke:#dc2626;stroke-width:3.02363;stroke-linecap:round;stroke-linejoin:round;stroke-miterlimit:10;stroke-dasharray:none;stroke-opacity:1" />
    <path
       id="path1462"
       d="m 1833.1096,255.03599 -2.3226,-0.11866 -0.2614,-0.0573 -0.4053,-0.36533"
       style="fill:none;stroke:#dc2626;stroke-width:3.02363;stroke-linecap:round;stroke-linejoin:round;stroke-miterlimit:10;stroke-dasharray:none;stroke-opacity:1" />
    <path
       id="path1543"
       d="m 1841.979,249.93199 -0.12,0.432 -0.057,0.93867 0.032,14.59867 -0.2093,1.25466 0.027,8.552"
       style="fill:none;stroke:#000000;stroke-width:1.5292;stroke-linecap:round;stroke-linejoin:round;stroke-miterlimit:10;stroke-dasharray:none;stroke-opacity:1" />
    <path
       id="path1544"
       d="m 1534.9003,247.88533 -0.025,6.536 0.344,1.672 -0.01,3.21333 0.364,1.88133 -0.041,4.676 0.432,3.068 0.043,6.05734"
       style="fill:none;stroke:#000000;stroke-width:1.5292;stroke-linecap:round;stroke-linejoin:round;stroke-miterlimit:10;stroke-dasharray:none;stroke-opacity:1" />
    <text
       xml:space="preserve"
       style="font-weight:500;font-stretch:condensed;font-size:18.8976px;line-height:32.3961px;font-family:'IBM Plex Sans Condensed';-inkscape-font-specification:'IBM Plex Sans Condensed,  Medium Condensed';letter-spacing:0px;writing-mode:lr-tb;direction:ltr;fill:#dc2626;stroke-width:3.02362;stroke-linecap:round;stroke-linejoin:round;stroke-dasharray:none"
       x="1657.0886"
       y="251.25957"
       id="text2256-8"><tspan
         sodipodi:role="line"
         id="tspan2256-9"
         x="1657.0886"
         y="251.25957">85 ± 1.5</tspan></text>
    <text
       xml:space="preserve"
       style="font-weight:500;font-stretch:condensed;font-size:18.8976px;line-height:32.3961px;font-family:'IBM Plex Sans Condensed';-inkscape-font-specification:'IBM Plex Sans Condensed,  Medium Condensed';letter-spacing:0px;writing-mode:lr-tb;direction:ltr;fill:#000000;stroke-width:3.02362;stroke-linecap:round;stroke-linejoin:round;stroke-dasharray:none"
       x="1756.7937"
       y="287.276"
       id="text2256-8-0"><tspan
         sodipodi:role="line"
         id="tspan2256-9-6"
         x="1756.7937"
         y="287.276">30 ± 0.5</tspan></text>
    <text
       xml:space="preserve"
       style="font-weight:500;font-stretch:condensed;font-size:18.8976px;line-height:32.3961px;font-family:'IBM Plex Sans Condensed';-inkscape-font-specification:'IBM Plex Sans Condensed,  Medium Condensed';letter-spacing:0px;writing-mode:lr-tb;direction:ltr;fill:#000000;stroke-width:3.02362;stroke-linecap:round;stroke-linejoin:round;stroke-dasharray:none"
       x="1658.1381"
       y="287.276"
       id="text2256-8-9"><tspan
         sodipodi:role="line"
         id="tspan2256-9-63"
         x="1658.1381"
         y="287.276">25 ± 0.5</tspan></text>
    <text
       xml:space="preserve"
       style="font-weight:500;font-stretch:condensed;font-size:18.8976px;line-height:32.3961px;font-family:'IBM Plex Sans Condensed';-inkscape-font-specification:'IBM Plex Sans Condensed,  Medium Condensed';letter-spacing:0px;writing-mode:lr-tb;direction:ltr;fill:#000000;stroke-width:3.02362;stroke-linecap:round;stroke-linejoin:round;stroke-dasharray:none"
       x="1561.5029"
       y="287.276"
       id="text2256-8-91"><tspan
         sodipodi:role="line"
         id="tspan2256-9-3"
         x="1561.5029"
         y="287.276">30 ± 0.5</tspan></text>
  </g>
  <g
     id="g2256"
     inkscape:groupmode="layer"
     transform="translate(-1512.845,-399.2907)"
     inkscape:label="baseline"
     style="display:inline">
    <path
       id="path1226"
       d="m 1550.2816,519.52665 1.6974,-3.03733 0.8026,-2.17733 0.52,-2.26 0.2454,-3.468 -0.412,-3.45334 -1.0467,-3.31333 -1.6507,-3.05733 -2.1986,-2.69734 -2.6614,-2.23466 -3.036,-1.69734 -3.2973,-1.1 -3.448,-0.46266 -2.3173,0.0573 -2.2974,0.344 -3.312,1.04667 -3.0626,1.656 -2.692,2.192 -2.24,2.66266 -1.6987,3.036 -0.8013,2.17734 -0.5214,2.26 -0.244,3.46933 0.4107,3.452 1.0467,3.31333 1.6573,3.06267 2.192,2.692 2.6613,2.24 3.0374,1.69733 3.296,1.1 3.448,0.46267 2.3186,-0.0573 2.296,-0.344 3.3134,-1.052 3.0613,-1.65067 2.6933,-2.19733 2.24,-2.66134"
       style="fill:none;stroke:#000000;stroke-width:1.5292;stroke-linecap:round;stroke-linejoin:round;stroke-miterlimit:10;stroke-dasharray:none;stroke-opacity:1" />
    <path
       id="path1227"
       d="m 1529.6096,508.60932 4.4574,-0.104 2.8026,-0.42667 1.2454,0.0253"
       style="fill:none;stroke:#000000;stroke-width:1.5292;stroke-linecap:round;stroke-linejoin:round;stroke-miterlimit:10;stroke-dasharray:none;stroke-opacity:1" />
    <path
       id="path1228"
       d="m 1535.4843,504.74532 0.7453,4.98933 -0.1053,2.93734"
       style="fill:none;stroke:#000000;stroke-width:1.5292;stroke-linecap:round;stroke-linejoin:round;stroke-miterlimit:10;stroke-dasharray:none;stroke-opacity:1" />
    <path
       id="path1229"
       d="m 1657.979,519.64532 1.6986,-3.036 0.8014,-2.17733 0.5213,-2.25467 0.244,-3.46933 -0.4107,-3.45334 -1.0466,-3.31733 -1.652,-3.05733 -2.1974,-2.69734 -2.6613,-2.23466 -3.0373,-1.69734 -3.296,-1.1 -3.448,-0.46266 -2.3187,0.0573 -2.296,0.34267 -3.3133,1.052 -3.0574,1.652 -2.6973,2.192 -2.2347,2.66666 -1.6973,3.032 -0.808,2.17734 -0.52,2.26 -0.2453,3.468 0.412,3.45333 1.0466,3.31867 1.656,3.056 2.1934,2.69866 2.6613,2.23467 3.036,1.69733 3.2973,1.09867 3.448,0.464 2.3174,-0.0573 2.2973,-0.344 3.312,-1.052 3.0627,-1.65067 2.692,-2.19867 2.24,-2.66133"
       style="fill:none;stroke:#000000;stroke-width:1.5292;stroke-linecap:round;stroke-linejoin:round;stroke-miterlimit:10;stroke-dasharray:none;stroke-opacity:1" />
    <path
       id="path1230"
       d="m 1637.307,508.72932 4.4586,-0.104 2.8014,-0.428 1.2453,0.032"
       style="fill:none;stroke:#000000;stroke-width:1.5292;stroke-linecap:round;stroke-linejoin:round;stroke-miterlimit:10;stroke-dasharray:none;stroke-opacity:1" />
    <path
       id="path1231"
       d="m 1643.1816,504.86399 0.7454,4.99066 -0.104,2.93734"
       style="fill:none;stroke:#000000;stroke-width:1.5292;stroke-linecap:round;stroke-linejoin:round;stroke-miterlimit:10;stroke-dasharray:none;stroke-opacity:1" />
    <path
       id="path1232"
       d="m 1855.911,518.70799 1.6986,-3.03067 0.8014,-2.17733 0.5266,-2.26 0.244,-3.46934 -0.4106,-3.45333 -1.0467,-3.312 -1.6573,-3.06267 -2.192,-2.692 -2.6614,-2.24 -3.0373,-1.69866 -3.296,-1.09867 -3.448,-0.464 -2.3173,0.0573 -2.2974,0.344 -3.312,1.052 -3.0626,1.652 -2.6934,2.19734 -2.24,2.66133 -1.6973,3.036 -0.8013,2.17733 -0.5214,2.26134 -0.2453,3.46266 0.4067,3.45334 1.052,3.31733 1.6506,3.05733 2.1987,2.69867 2.6613,2.23467 3.036,1.69733 3.2974,1.09867 3.448,0.464 2.3173,-0.0573 2.2973,-0.344 3.312,-1.04666 3.0574,-1.656 2.6986,-2.19334 2.2334,-2.66666"
       style="fill:none;stroke:#000000;stroke-width:1.5292;stroke-linecap:round;stroke-linejoin:round;stroke-miterlimit:10;stroke-dasharray:none;stroke-opacity:1" />
    <path
       id="path1233"
       d="m 1835.2443,507.79732 4.4587,-0.10933 2.7973,-0.428 1.2493,0.032"
       style="fill:none;stroke:#000000;stroke-width:1.5292;stroke-linecap:round;stroke-linejoin:round;stroke-miterlimit:10;stroke-dasharray:none;stroke-opacity:1" />
    <path
       id="path1234"
       d="m 1841.1203,503.93199 0.7387,4.98933 -0.099,2.93333"
       style="fill:none;stroke:#000000;stroke-width:1.5292;stroke-linecap:round;stroke-linejoin:round;stroke-miterlimit:10;stroke-dasharray:none;stroke-opacity:1" />
    <path
       id="path1235"
       d="m 1747.2963,517.78132 1.6987,-3.032 0.8013,-2.176 0.5213,-2.26133 0.2454,-3.468 -0.4067,-3.45334 -1.052,-3.31733 -1.6507,-3.05733 -2.1986,-2.69867 -2.6614,-2.23467 -3.036,-1.69733 -3.2973,-1.09867 -3.448,-0.464 -2.3173,0.0573 -2.292,0.344 -3.3174,1.052 -3.0573,1.65066 -2.6987,2.19867 -2.2333,2.66133 -1.6987,3.03067 -0.8013,2.17733 -0.5267,2.26 -0.2453,3.46934 0.412,3.45333 1.0467,3.31733 1.656,3.05734 2.1933,2.69866 2.6613,2.23334 3.036,1.69866 3.2974,1.09867 3.448,0.464 2.3173,-0.0573 2.2973,-0.344 3.312,-1.052 3.0627,-1.652 2.6933,-2.19734 2.2387,-2.66133"
       style="fill:none;stroke:#000000;stroke-width:1.5292;stroke-linecap:round;stroke-linejoin:round;stroke-miterlimit:10;stroke-dasharray:none;stroke-opacity:1" />
    <path
       id="path1236"
       d="m 1726.6243,506.86932 4.4587,-0.10933 2.8026,-0.42667 1.244,0.0307"
       style="fill:none;stroke:#000000;stroke-width:1.5292;stroke-linecap:round;stroke-linejoin:round;stroke-miterlimit:10;stroke-dasharray:none;stroke-opacity:1" />
    <path
       id="path1237"
       d="m 1732.5003,503.00532 0.744,4.98933 -0.104,2.932"
       style="fill:none;stroke:#000000;stroke-width:1.5292;stroke-linecap:round;stroke-linejoin:round;stroke-miterlimit:10;stroke-dasharray:none;stroke-opacity:1" />
    <path
       id="path1238"
       d="m 1535.7083,419.55732 v 79.432"
       style="fill:none;stroke:#000000;stroke-width:1.5292;stroke-linecap:round;stroke-linejoin:round;stroke-miterlimit:10;stroke-dasharray:none;stroke-opacity:1" />
    <path
       id="path1239-6"
       d="m 1644.6296,473.92665 h 0.032"
       style="fill:none;stroke:#dc2626;stroke-width:3.02362;stroke-linecap:round;stroke-linejoin:round;stroke-miterlimit:10;stroke-dasharray:none;stroke-opacity:1" />
    <path
       id="path1240-1"
       d="m 1644.6616,473.92665 h 0.093"
       style="fill:none;stroke:#dc2626;stroke-width:3.02362;stroke-linecap:round;stroke-linejoin:round;stroke-miterlimit:10;stroke-dasharray:none;stroke-opacity:1" />
    <path
       id="path1241-4"
       d="m 1644.7549,473.92665 h 0.1094"
       style="fill:none;stroke:#dc2626;stroke-width:3.02362;stroke-linecap:round;stroke-linejoin:round;stroke-miterlimit:10;stroke-dasharray:none;stroke-opacity:1" />
    <path
       id="path1242-2"
       d="m 1644.8643,473.92665 h 0.672"
       style="fill:none;stroke:#dc2626;stroke-width:3.02362;stroke-linecap:round;stroke-linejoin:round;stroke-miterlimit:10;stroke-dasharray:none;stroke-opacity:1" />
    <path
       id="path1243-3"
       d="m 1645.5363,473.92665 h 0.808"
       style="fill:none;stroke:#dc2626;stroke-width:3.02362;stroke-linecap:round;stroke-linejoin:round;stroke-miterlimit:10;stroke-dasharray:none;stroke-opacity:1" />
    <path
       id="path1244-2"
       d="m 1646.3443,473.92665 h 0.708"
       style="fill:none;stroke:#dc2626;stroke-width:3.02362;stroke-linecap:round;stroke-linejoin:round;stroke-miterlimit:10;stroke-dasharray:none;stroke-opacity:1" />
    <path
       id="path1245-2"
       d="m 1647.0523,473.92665 h 0.7493"
       style="fill:none;stroke:#dc2626;stroke-width:3.02362;stroke-linecap:round;stroke-linejoin:round;stroke-miterlimit:10;stroke-dasharray:none;stroke-opacity:1" />
    <path
       id="path1246-1"
       d="m 1647.8016,473.92665 h 0.6253"
       style="fill:none;stroke:#dc2626;stroke-width:3.02362;stroke-linecap:round;stroke-linejoin:round;stroke-miterlimit:10;stroke-dasharray:none;stroke-opacity:1" />
    <path
       id="path1247-6"
       d="m 1648.4269,473.92665 h 0.5734"
       style="fill:none;stroke:#dc2626;stroke-width:3.02362;stroke-linecap:round;stroke-linejoin:round;stroke-miterlimit:10;stroke-dasharray:none;stroke-opacity:1" />
    <path
       id="path1248-8"
       d="m 1649.0003,473.92665 h 0.6293"
       style="fill:none;stroke:#dc2626;stroke-width:3.02362;stroke-linecap:round;stroke-linejoin:round;stroke-miterlimit:10;stroke-dasharray:none;stroke-opacity:1" />
    <path
       id="path1249-5"
       d="m 1649.6296,473.92665 h 0.5213"
       style="fill:none;stroke:#dc2626;stroke-width:3.02362;stroke-linecap:round;stroke-linejoin:round;stroke-miterlimit:10;stroke-dasharray:none;stroke-opacity:1" />
    <path
       id="path1250-7"
       d="m 1650.1509,473.92665 h 0.6254"
       style="fill:none;stroke:#dc2626;stroke-width:3.02362;stroke-linecap:round;stroke-linejoin:round;stroke-miterlimit:10;stroke-dasharray:none;stroke-opacity:1" />
    <path
       id="path1251-6"
       d="m 1650.7763,473.92665 h 0.6866"
       style="fill:none;stroke:#dc2626;stroke-width:3.02362;stroke-linecap:round;stroke-linejoin:round;stroke-miterlimit:10;stroke-dasharray:none;stroke-opacity:1" />
    <path
       id="path1252-1"
       d="m 1651.4629,473.92665 h 0.756"
       style="fill:none;stroke:#dc2626;stroke-width:3.02362;stroke-linecap:round;stroke-linejoin:round;stroke-miterlimit:10;stroke-dasharray:none;stroke-opacity:1" />
    <path
       id="path1253-8"
       d="m 1652.2189,473.92665 h 0.9787"
       style="fill:none;stroke:#dc2626;stroke-width:3.02362;stroke-linecap:round;stroke-linejoin:round;stroke-miterlimit:10;stroke-dasharray:none;stroke-opacity:1" />
    <path
       id="path1254-9"
       d="m 1653.1976,473.92665 h 1.0053"
       style="fill:none;stroke:#dc2626;stroke-width:3.02362;stroke-linecap:round;stroke-linejoin:round;stroke-miterlimit:10;stroke-dasharray:none;stroke-opacity:1" />
    <path
       id="path1255-2"
       d="m 1654.2029,473.92665 h 1.0214"
       style="fill:none;stroke:#dc2626;stroke-width:3.02362;stroke-linecap:round;stroke-linejoin:round;stroke-miterlimit:10;stroke-dasharray:none;stroke-opacity:1" />
    <path
       id="path1256-7"
       d="m 1655.2243,473.92665 h 1.124"
       style="fill:none;stroke:#dc2626;stroke-width:3.02362;stroke-linecap:round;stroke-linejoin:round;stroke-miterlimit:10;stroke-dasharray:none;stroke-opacity:1" />
    <path
       id="path1257-9"
       d="m 1656.3483,473.92665 h 0.9226"
       style="fill:none;stroke:#dc2626;stroke-width:3.02362;stroke-linecap:round;stroke-linejoin:round;stroke-miterlimit:10;stroke-dasharray:none;stroke-opacity:1" />
    <path
       id="path1258-5"
       d="m 1657.2709,473.92665 h 0.7347"
       style="fill:none;stroke:#dc2626;stroke-width:3.02362;stroke-linecap:round;stroke-linejoin:round;stroke-miterlimit:10;stroke-dasharray:none;stroke-opacity:1" />
    <path
       id="path1439-4"
       d="m 1657.7166,473.92665 h 72.9363"
       style="fill:none;stroke:#dc2626;stroke-width:3.02362;stroke-linecap:round;stroke-linejoin:round;stroke-miterlimit:10;stroke-dasharray:none;stroke-opacity:1" />
    <path
       id="path1440-3"
       d="m 1646.9483,473.36398 v -0.005 l -0.01,-0.005"
       style="fill:none;stroke:#dc2626;stroke-width:3.02362;stroke-linecap:round;stroke-linejoin:round;stroke-miterlimit:10;stroke-dasharray:none;stroke-opacity:1" />
    <path
       id="path1441-1"
       d="m 1646.9429,473.35332 -0.01,-0.005 0.24,-0.036"
       style="fill:none;stroke:#dc2626;stroke-width:3.02362;stroke-linecap:round;stroke-linejoin:round;stroke-miterlimit:10;stroke-dasharray:none;stroke-opacity:1" />
    <path
       id="path1442-2"
       d="m 1647.1776,473.31198 0.724,-0.172 0.9627,-0.28666 2.4266,-0.92134"
       style="fill:none;stroke:#dc2626;stroke-width:3.02362;stroke-linecap:round;stroke-linejoin:round;stroke-miterlimit:10;stroke-dasharray:none;stroke-opacity:1" />
    <path
       id="path1443-3"
       d="m 1651.2909,471.93198 2.3907,-0.308 h -0.031 l -0.088,0.0107"
       style="fill:none;stroke:#dc2626;stroke-width:3.02362;stroke-linecap:round;stroke-linejoin:round;stroke-miterlimit:10;stroke-dasharray:none;stroke-opacity:1" />
    <path
       id="path1444-3"
       d="m 1653.5629,471.63465 -0.4173,0.0107 -0.156,0.0413 -3.5,1.052"
       style="fill:none;stroke:#dc2626;stroke-width:3.02362;stroke-linecap:round;stroke-linejoin:round;stroke-miterlimit:10;stroke-dasharray:none;stroke-opacity:1" />
    <path
       id="path1445-4"
       d="m 1649.4896,472.73865 -1.8027,0.844 -1.0413,0.136 0.2507,0.052"
       style="fill:none;stroke:#dc2626;stroke-width:3.02362;stroke-linecap:round;stroke-linejoin:round;stroke-miterlimit:10;stroke-dasharray:none;stroke-opacity:1" />
    <path
       id="path1446-1"
       d="m 1646.8963,473.77065 1.7906,1.06267 3.532,1.28533 0.916,0.63067"
       style="fill:none;stroke:#dc2626;stroke-width:3.02362;stroke-linecap:round;stroke-linejoin:round;stroke-miterlimit:10;stroke-dasharray:none;stroke-opacity:1" />
    <path
       id="path1448-1"
       d="m 1651.8856,475.85865 -3.6147,-1.136 -0.7293,0.016"
       style="fill:none;stroke:#dc2626;stroke-width:3.02362;stroke-linecap:round;stroke-linejoin:round;stroke-miterlimit:10;stroke-dasharray:none;stroke-opacity:1" />
    <path
       id="path1449-3"
       d="m 1729.5363,473.58798 0.047,0.0307 0.052,0.0427"
       style="fill:none;stroke:#dc2626;stroke-width:3.02362;stroke-linecap:round;stroke-linejoin:round;stroke-miterlimit:10;stroke-dasharray:none;stroke-opacity:1" />
    <path
       id="path1450-8"
       d="m 1729.635,473.66132 0.027,0.02 -0.079,0.005 -0.1813,-0.0413"
       style="fill:none;stroke:#dc2626;stroke-width:3.02362;stroke-linecap:round;stroke-linejoin:round;stroke-miterlimit:10;stroke-dasharray:none;stroke-opacity:1" />
    <path
       id="path1451-7"
       d="m 1729.4017,473.64532 -0.2454,-0.0573 -0.4373,-0.13066 -0.1827,-0.068"
       style="fill:none;stroke:#dc2626;stroke-width:3.02362;stroke-linecap:round;stroke-linejoin:round;stroke-miterlimit:10;stroke-dasharray:none;stroke-opacity:1" />
    <path
       id="path1452-4"
       d="m 1728.5363,473.38932 -0.64,-0.228 -1.276,-0.45867 -0.5733,-0.0987"
       style="fill:none;stroke:#dc2626;stroke-width:3.02362;stroke-linecap:round;stroke-linejoin:round;stroke-miterlimit:10;stroke-dasharray:none;stroke-opacity:1" />
    <path
       id="path1453-2"
       d="m 1726.047,472.60398 -3.3027,-0.0213 -0.5146,-0.19333 1.8173,-0.24934"
       style="fill:none;stroke:#dc2626;stroke-width:3.02362;stroke-linecap:round;stroke-linejoin:round;stroke-miterlimit:10;stroke-dasharray:none;stroke-opacity:1" />
    <path
       id="path1454-7"
       d="m 1724.047,472.13998 3.448,-0.0107 0.828,0.14133 0.8853,0.57733"
       style="fill:none;stroke:#dc2626;stroke-width:3.02362;stroke-linecap:round;stroke-linejoin:round;stroke-miterlimit:10;stroke-dasharray:none;stroke-opacity:1" />
    <path
       id="path1455-7"
       d="m 1729.2083,472.84798 -2.8386,-0.0573 -2.6974,-0.38533 -0.4013,-0.18134"
       style="fill:none;stroke:#dc2626;stroke-width:3.02362;stroke-linecap:round;stroke-linejoin:round;stroke-miterlimit:10;stroke-dasharray:none;stroke-opacity:1" />
    <path
       id="path1456-9"
       d="m 1723.271,472.22398 -0.172,-0.14133 0.6773,0.14533 2.5254,1.15734"
       style="fill:none;stroke:#dc2626;stroke-width:3.02362;stroke-linecap:round;stroke-linejoin:round;stroke-miterlimit:10;stroke-dasharray:none;stroke-opacity:1" />
    <path
       id="path1457-3"
       d="m 1726.3017,473.38532 0.9173,0.18666 1.8547,0.068 0.6453,0.432"
       style="fill:none;stroke:#dc2626;stroke-width:3.02362;stroke-linecap:round;stroke-linejoin:round;stroke-miterlimit:10;stroke-dasharray:none;stroke-opacity:1" />
    <path
       id="path1458-1"
       d="m 1729.719,474.07198 1.3587,0.0627 0.5786,0.28667 -4.536,2.39066"
       style="fill:none;stroke:#dc2626;stroke-width:3.02362;stroke-linecap:round;stroke-linejoin:round;stroke-miterlimit:10;stroke-dasharray:none;stroke-opacity:1" />
    <path
       id="path1459-9"
       d="m 1727.1203,476.81198 -2.0893,1.78134 -1.5253,0.708 3.1973,-1.87467"
       style="fill:none;stroke:#dc2626;stroke-width:3.02362;stroke-linecap:round;stroke-linejoin:round;stroke-miterlimit:10;stroke-dasharray:none;stroke-opacity:1" />
    <path
       id="path1460-8"
       d="m 1726.703,477.42665 3.9533,-2.08933 0.7814,-0.59334 0.1613,-0.33866"
       style="fill:none;stroke:#dc2626;stroke-width:3.02362;stroke-linecap:round;stroke-linejoin:round;stroke-miterlimit:10;stroke-dasharray:none;stroke-opacity:1" />
    <path
       id="path1461-6"
       d="m 1731.599,474.40532 -1.9733,-0.984 -0.9227,-0.24534 -3.3067,-0.5"
       style="fill:none;stroke:#dc2626;stroke-width:3.02362;stroke-linecap:round;stroke-linejoin:round;stroke-miterlimit:10;stroke-dasharray:none;stroke-opacity:1" />
    <path
       id="path1462-5"
       d="m 1725.3963,472.67598 -2.3226,-0.11866 -0.2614,-0.0573 -0.4053,-0.36533"
       style="fill:none;stroke:#dc2626;stroke-width:3.02362;stroke-linecap:round;stroke-linejoin:round;stroke-miterlimit:10;stroke-dasharray:none;stroke-opacity:1" />
    <path
       id="path1545"
       d="m 1644.0256,466.28132 v 34.412"
       style="fill:none;stroke:#000000;stroke-width:1.5292;stroke-linecap:round;stroke-linejoin:round;stroke-miterlimit:10;stroke-dasharray:none;stroke-opacity:1" />
    <path
       id="path1546"
       d="m 1733.6563,431.87466 v 65.84399"
       style="fill:none;stroke:#000000;stroke-width:1.5292;stroke-linecap:round;stroke-linejoin:round;stroke-miterlimit:10;stroke-dasharray:none;stroke-opacity:1" />
    <path
       id="path1547"
       d="m 1841.9736,404.26532 v 95.57333"
       style="fill:none;stroke:#000000;stroke-width:1.5292;stroke-linecap:round;stroke-linejoin:round;stroke-miterlimit:10;stroke-dasharray:none;stroke-opacity:1" />
    <path
       id="path1548"
       d="m 1537.4056,473.92665 h 103.224"
       style="fill:none;stroke:#000000;stroke-width:1.5292;stroke-linecap:round;stroke-linejoin:round;stroke-miterlimit:10;stroke-dasharray:none;stroke-opacity:1" />
    <path
       id="path1558"
       d="m 1537.8336,446.44266 h 193.2707"
       style="fill:none;stroke:#000000;stroke-width:1.5292;stroke-linecap:round;stroke-linejoin:round;stroke-miterlimit:10;stroke-dasharray:none;stroke-opacity:1" />
    <path
       id="path1570"
       d="m 1538.255,418.70799 h 301.5933"
       style="fill:none;stroke:#000000;stroke-width:1.5292;stroke-linecap:round;stroke-linejoin:round;stroke-miterlimit:10;stroke-dasharray:none;stroke-opacity:1" />
    <path
       id="path1571"
       d="m 1535.8283,420.09866 0.1773,-0.312 -0.057,-6.52667 -0.063,-3.708 -0.2453,-0.80267"
       style="fill:none;stroke:#000000;stroke-width:1.5292;stroke-linecap:round;stroke-linejoin:round;stroke-miterlimit:10;stroke-dasharray:none;stroke-opacity:1" />
    <path
       id="path1582"
       d="m 1839.8856,418.27066 0.1254,-0.088 -2.652,-0.72934 -0.776,-0.11466 -0.5414,0.0733 -0.3386,-0.276 -0.6307,-0.14667 1.276,0.69867 2.1307,0.036 1.0106,0.23467 1.4107,0.81733 0.2813,0.0413 -0.52,0.188 -0.7973,0.588 -1.0213,0.48934 -2.2707,1.412 -1.484,0.552 -1.26,0.17733"
       style="fill:none;stroke:#000000;stroke-width:1.5292;stroke-linecap:round;stroke-linejoin:round;stroke-miterlimit:10;stroke-dasharray:none;stroke-opacity:1" />
    <path
       id="path1583"
       d="m 1726.9163,444.51066 2.6413,-0.016 2.6867,0.67733 0.74,0.35467 -0.1507,-0.0213 -0.047,1 -0.3707,0.49467 -0.692,0.396 -1.548,0.244 -1.4787,0.42267 -1.312,0.5 -2.6146,1.344"
       style="fill:none;stroke:#000000;stroke-width:1.5292;stroke-linecap:round;stroke-linejoin:round;stroke-miterlimit:10;stroke-dasharray:none;stroke-opacity:1" />
    <path
       id="path1584"
       d="m 1637.4896,473.01599 2.4214,0.672 2.2293,-0.068 0.9013,0.21866 -1.172,0.76534 -1.276,0.604 -2.412,0.188 -0.6813,0.64 -0.5213,0.26666 3.4786,-1.76666 2.224,-0.4 -0.276,-0.26134 -1.8386,-0.93733 -2.3067,-0.74933 -2.5933,0.104 -0.6414,0.17733 0.3907,0.0933"
       style="fill:none;stroke:#000000;stroke-width:1.5292;stroke-linecap:round;stroke-linejoin:round;stroke-miterlimit:10;stroke-dasharray:none;stroke-opacity:1" />
    <path
       id="path1585"
       d="m 1538.5203,472.80265 2.62,-0.56266 2.1093,-0.76134 0.432,0.068 -0.8386,0.37067 -3.7654,1.104 -1.448,0.68133 0.4227,0.83867 1.328,0.928 0.8747,0.348 1.0986,0.0107 1.428,0.22933 -2.5893,-0.89067 -1.8333,-0.90133"
       style="fill:none;stroke:#000000;stroke-width:1.5292;stroke-linecap:round;stroke-linejoin:round;stroke-miterlimit:10;stroke-dasharray:none;stroke-opacity:1" />
    <path
       id="path1586"
       d="m 1536.515,445.17732 1.8853,-0.43733 6.0787,-2.10933 1.4946,-0.876 -3.88,1.45866 -3.2026,0.76 -1.4947,0.88134 -0.048,0.78133 0.1613,0.348 0.2774,0.16133 2.8586,1.02134 2.052,0.45866 0.8387,0.38534 -0.4067,0.33333 -0.6613,0.26533 -1.552,-0.0933 -2.12,-1.068 -0.2867,-0.21333 -0.2706,-0.49467 1.9693,2.17733 0.6093,0.49467 1.828,0.692 -2.792,-2.364 -0.432,-0.98533"
       style="fill:none;stroke:#000000;stroke-width:1.5292;stroke-linecap:round;stroke-linejoin:round;stroke-miterlimit:10;stroke-dasharray:none;stroke-opacity:1" />
    <path
       id="path1587"
       d="m 1537.167,417.94266 5.2333,-1.21334 2.292,-0.87466 0.8133,-0.068 1.3014,0.13066 -0.9427,0.0827 -2.4107,0.74933 -1.9066,0.36534 -1.4534,0.552 -0.7493,0.53066 -1.2613,0.16267 -0.896,0.39467 0.3226,0.73466 0.4227,0.35467 1.2027,0.41067 3.88,0.81866 0.4586,0.18667 0.2294,0.34933 -1.8494,-0.69733 -1.9573,-0.47467 -1.2507,-0.604 -0.568,-0.62533"
       style="fill:none;stroke:#000000;stroke-width:1.5292;stroke-linecap:round;stroke-linejoin:round;stroke-miterlimit:10;stroke-dasharray:none;stroke-opacity:1" />
    <text
       xml:space="preserve"
       style="font-weight:500;font-stretch:condensed;font-size:18.8976px;line-height:32.3961px;font-family:'IBM Plex Sans Condensed';-inkscape-font-specification:'IBM Plex Sans Condensed,  Medium Condensed';letter-spacing:0px;writing-mode:lr-tb;direction:ltr;fill:#000000;stroke-width:3.02362;stroke-linecap:round;stroke-linejoin:round;stroke-dasharray:none"
       x="1659.0541"
       y="414.70798"
       id="text2256"><tspan
         sodipodi:role="line"
         id="tspan2256"
         x="1659.0541"
         y="414.70798">85 ± 0.5</tspan></text>
    <text
       xml:space="preserve"
       style="font-weight:500;font-stretch:condensed;font-size:18.8976px;line-height:32.3961px;font-family:'IBM Plex Sans Condensed';-inkscape-font-specification:'IBM Plex Sans Condensed,  Medium Condensed';letter-spacing:0px;writing-mode:lr-tb;direction:ltr;fill:#000000;stroke-width:3.02362;stroke-linecap:round;stroke-linejoin:round;stroke-dasharray:none"
       x="1564.2355"
       y="469.92667"
       id="text2256-0"><tspan
         sodipodi:role="line"
         id="tspan2256-2"
         x="1564.2355"
         y="469.92667">30 ± 0.5</tspan></text>
    <text
       xml:space="preserve"
       style="font-weight:500;font-stretch:condensed;font-size:18.8976px;line-height:32.3961px;font-family:'IBM Plex Sans Condensed';-inkscape-font-specification:'IBM Plex Sans Condensed,  Medium Condensed';letter-spacing:0px;writing-mode:lr-tb;direction:ltr;fill:#000000;stroke-width:3.02362;stroke-linecap:round;stroke-linejoin:round;stroke-dasharray:none"
       x="1614.1202"
       y="442.44266"
       id="text2256-09"><tspan
         sodipodi:role="line"
         id="tspan2256-0"
         x="1614.1202"
         y="442.44266">55 ± 0.5</tspan></text>
    <text
       xml:space="preserve"
       style="font-weight:500;font-stretch:condensed;font-size:18.8976px;line-height:32.3961px;font-family:'IBM Plex Sans Condensed';-inkscape-font-specification:'IBM Plex Sans Condensed,  Medium Condensed';letter-spacing:0px;writing-mode:lr-tb;direction:ltr;fill:#dc2626;stroke-width:3.02362;stroke-linecap:round;stroke-linejoin:round;stroke-dasharray:none"
       x="1658.0054"
       y="469.92664"
       id="text2256-09-0"><tspan
         sodipodi:role="line"
         id="tspan2256-0-7"
         x="1658.0054"
         y="469.92664">30 ± 1.0</tspan></text>
  </g>
</svg>
