<?xml version="1.0" encoding="UTF-8" standalone="no"?>
<!-- Created with Inkscape (http://www.inkscape.org/) -->

<svg
   version="1.1"
   id="svg1"
   width="197.46144"
   height="97.069305"
   viewBox="0 0 197.46144 97.069306"
   xmlns="http://www.w3.org/2000/svg"
   xmlns:svg="http://www.w3.org/2000/svg">
  <defs
     id="defs1" />
  <g
     id="fillet"
     transform="translate(-3417.6772,-236.83909)"
     style="display:inline">
    <path
       id="path2266"
       d="m 92.062,209.5 0.239,0.027 13.226,-0.082 1.868,-0.203 5.171,0.02 1.918,0.211 13.051,-0.028 1.653,0.223 11.714,0.004 1.223,0.113 2.992,-0.015 1.445,0.203 3.379,-0.02 2.016,0.203 5.844,-0.019 0.519,0.093 1.383,0.782 0.719,0.09 0.887,0.375 1.171,0.273 0.344,0.531 0.492,0.34 1.274,0.059 0.519,0.343 0.711,0.254 0.793,0.118 0.555,0.293 0.531,0.093 4.645,2.41 0.929,1.11 0.899,0.379 0.543,1.16 0.965,0.887 0.601,1.398 0.852,1.043 0.293,0.684 0.004,0.867 0.211,1.023 0.265,0.551 0.02,1.41 0.469,1.91 0.031,5.813 -0.156,0.754 0.011,1.027 -0.097,0.648 -0.02,3.954 0.316,0.765 0.141,0.875 0.422,0.891 -0.039,0.937 -0.246,0.485"
       style="fill:none;stroke:#e5e7eb;stroke-width:11.3386;stroke-linecap:round;stroke-linejoin:round;stroke-miterlimit:10;stroke-dasharray:none;stroke-opacity:1"
       transform="matrix(1.3333333,0,0,1.3333333,3307.6149,0)" />
    <path
       id="path2263"
       d="m 184.352,230.801 -0.192,-3.098 -0.262,-1.644 -0.82,-3.223 -0.562,-1.566 -1.414,-3.012 -1.778,-2.809 -1.019,-1.316 -1.098,-1.246 -2.422,-2.282 -1.312,-1.019 -2.809,-1.785 -3.008,-1.422 -1.562,-0.563 -3.223,-0.832 -1.641,-0.261 -3.32,-0.211 -1.351,0.082"
       style="fill:none;stroke:#000000;stroke-width:1.1469;stroke-linecap:round;stroke-linejoin:round;stroke-miterlimit:10;stroke-dasharray:none;stroke-opacity:1"
       transform="matrix(1.3333333,0,0,1.3333333,3307.6149,0)" />
    <path
       id="path2264"
       d="M 156.754,204.227 H 88.141"
       style="fill:none;stroke:#000000;stroke-width:1.1469;stroke-linecap:round;stroke-linejoin:round;stroke-miterlimit:10;stroke-dasharray:none;stroke-opacity:1"
       transform="matrix(1.3333333,0,0,1.3333333,3307.6149,0)" />
    <path
       id="path2265"
       d="m 184.152,231.305 v 13.062"
       style="fill:none;stroke:#000000;stroke-width:1.1469;stroke-linecap:round;stroke-linejoin:round;stroke-miterlimit:10;stroke-dasharray:none;stroke-opacity:1"
       transform="matrix(1.3333333,0,0,1.3333333,3307.6149,0)" />
    <path
       id="path2267"
       d="m 151.812,230.438 0.18,0.124 1.535,0.02 1.211,-0.043 1.871,-0.285 2.555,0.062"
       style="fill:none;stroke:#000000;stroke-width:1.1469;stroke-linecap:round;stroke-linejoin:round;stroke-miterlimit:10;stroke-dasharray:none;stroke-opacity:1"
       transform="matrix(1.3333333,0,0,1.3333333,3307.6149,0)" />
    <path
       id="path2268"
       d="m 156.148,228.559 0.043,2.14 -0.113,1.418 -0.789,2.227"
       style="fill:none;stroke:#000000;stroke-width:1.1469;stroke-linecap:round;stroke-linejoin:round;stroke-miterlimit:10;stroke-dasharray:none;stroke-opacity:1"
       transform="matrix(1.3333333,0,0,1.3333333,3307.6149,0)" />
    <path
       id="path2269"
       d="m 180.984,215.992 -0.015,-0.082 1.695,-0.512 1.231,-0.507 2.039,-1.606 2.504,-1.18 1.371,-0.953 3.3,-1.89 1.59,-1.157 3.227,-1.949 0.554,-0.433 1.61,-0.789 2.254,-1.293"
       style="fill:none;stroke:#000000;stroke-width:1.1469;stroke-linecap:round;stroke-linejoin:round;stroke-miterlimit:10;stroke-dasharray:none;stroke-opacity:1"
       transform="matrix(1.3333333,0,0,1.3333333,3307.6149,0)" />
    <path
       id="path2270"
       d="m 183.406,213.586 0.867,-1.117 -0.082,0.203 -1.078,1.359 -1.797,2.008 -0.875,1.195 0.094,-0.14 1.113,-0.239 1.52,-0.843 1.574,-0.305 1.508,-0.543 -1.852,0.676 -1.765,0.129 -1.863,0.797 0.738,-0.368 0.453,-0.5 0.242,-0.445 0.481,-0.164 0.398,-0.332 0.359,-0.769 0.215,-0.778 0.328,-0.484 -0.761,1.707 -0.258,0.371 -0.473,0.293 -0.14,0.504 0.96,0.117 1.68,-0.035 1.203,-0.137"
       style="fill:none;stroke:#000000;stroke-width:1.1469;stroke-linecap:round;stroke-linejoin:round;stroke-miterlimit:10;stroke-dasharray:none;stroke-opacity:1"
       transform="matrix(1.3333333,0,0,1.3333333,3307.6149,0)" />
    <text
       xml:space="preserve"
       style="font-weight:500;font-stretch:condensed;font-size:18.8976px;line-height:32.3961px;font-family:'IBM Plex Sans Condensed';-inkscape-font-specification:'IBM Plex Sans Condensed,  Medium Condensed';letter-spacing:0px;writing-mode:lr-tb;direction:ltr;fill:#e5e7eb;stroke:#e5e7eb;stroke-width:0.377953;stroke-linecap:round;stroke-linejoin:round;stroke-dasharray:none;stroke-opacity:1"
       x="3580.0923"
       y="276.55304"
       id="text2295"><tspan
         id="tspan2295"
         x="3580.0923"
         y="276.55304"
         style="fill:#000000;fill-opacity:1;stroke:none">R3</tspan></text>
  </g>
  <g
     id="flat"
     transform="translate(-3420.5398,-505.44375)"
     style="display:inline">
    <path
       id="path2277"
       d="m 90.363,410.77 0.012,0.031 0.016,0.035 0.011,0.039 0.067,0.031 0.187,-0.008 1.121,-0.293 0.59,-0.097 1.711,0.023 2.024,-0.105 2.234,0.226 2.508,-0.035 1.121,0.129 1.48,-0.031 1.828,-0.227 2.77,0.008 3.047,0.297 3.211,-0.195 3.347,0.031 1.965,-0.211 2.028,0.027 0.804,0.11 1.422,-0.129 1.207,0.008 -0.121,0.023 0.371,0.43 0.164,0.472 -0.062,1.496 0.125,0.77 -0.012,3.02 -0.367,3.582 -0.027,2.187 -0.114,0.785 0.016,1.41 0.117,0.703 -0.035,1.602 -0.629,4.934 0.004,4.328 0.199,0.988 0.07,2.445 0.235,0.598 0.125,0.863 0.109,0.207 0.098,0.008 0.699,-0.047 0.773,-0.238 1.821,0.18 2.039,-0.254 3.808,-0.016 2.879,-0.195 1.227,0.012 1.371,-0.219 3.094,0.039 1.246,0.109 3.301,-0.027 2.015,-0.168 4.262,0.035 1.48,-0.164 4.758,-0.227 1.575,0.141 1.218,-0.184 2.985,-0.144 5.097,0.215 2.414,-0.274 3.235,0.043 5.199,-0.199 1.437,0.008 1.11,0.234 3.16,0.356 1.676,-0.063 1.386,-0.195 0.907,0.039 0.386,-0.129 0.336,-0.531 -0.089,-2.11 -0.145,-0.839 0.031,-1.727 0.106,-0.531 -0.035,-1.754 0.332,-0.984 0.046,-0.493 -0.054,-3.695 -0.418,-1.672 -0.031,-2.414 -0.688,-1.805 0.02,-2.054 -0.286,-2.282 0.055,-2.988 0.098,-0.234 -0.008,-0.778 0.262,-0.937 -0.039,-1.121 -0.11,-0.192 0.797,-0.117 3.434,0.137 2.031,0.27 1.074,-0.02 1.852,0.211 4.695,0.719 1.742,-0.004 3.926,0.297 4.031,-0.129 3,0.023 0.981,-0.215 1.265,-0.093 1.239,0.234 2.238,0.176 1.961,-0.184 1.574,0.028 -0.297,0.417"
       style="display:inline;fill:none;stroke:#e5e7eb;stroke-width:11.3386;stroke-linecap:round;stroke-linejoin:round;stroke-miterlimit:10;stroke-dasharray:none;stroke-opacity:1"
       transform="matrix(1.3333333,0,0,1.3333333,3307.6149,0)" />
    <path
       id="path2273"
       d="M 90.16,405.875 H 224.281"
       style="fill:none;stroke:#000000;stroke-width:1.1469;stroke-linecap:round;stroke-linejoin:round;stroke-miterlimit:10;stroke-dasharray:none;stroke-opacity:1"
       transform="matrix(1.3333333,0,0,1.3333333,3307.6149,0)" />
    <path
       id="path2274"
       d="m 129.98,407.789 v 25.484"
       style="fill:none;stroke:#000000;stroke-width:1.1469;stroke-linecap:round;stroke-linejoin:round;stroke-miterlimit:10;stroke-dasharray:none;stroke-opacity:1"
       transform="matrix(1.3333333,0,0,1.3333333,3307.6149,0)" />
    <path
       id="path2275"
       d="m 130.301,434.547 h 53.84"
       style="fill:none;stroke:#000000;stroke-width:1.1469;stroke-linecap:round;stroke-linejoin:round;stroke-miterlimit:10;stroke-dasharray:none;stroke-opacity:1"
       transform="matrix(1.3333333,0,0,1.3333333,3307.6149,0)" />
    <path
       id="path2276"
       d="m 185.414,406.512 v 28.035"
       style="fill:none;stroke:#000000;stroke-width:1.1469;stroke-linecap:round;stroke-linejoin:round;stroke-miterlimit:10;stroke-dasharray:none;stroke-opacity:1"
       transform="matrix(1.3333333,0,0,1.3333333,3307.6149,0)" />
    <path
       id="path2278"
       d="m 144,407.789 v 25.168"
       style="fill:none;stroke:#000000;stroke-width:1.1469;stroke-linecap:round;stroke-linejoin:round;stroke-miterlimit:10;stroke-dasharray:none;stroke-opacity:1"
       transform="matrix(1.3333333,0,0,1.3333333,3307.6149,0)" />
    <path
       id="path2279"
       d="m 142.043,430.84 1.352,1.683 0.203,0.707 -0.075,-0.203 0.446,0.004 0.871,-0.855 0.301,-0.559 0.175,-0.672"
       style="fill:none;stroke:#000000;stroke-width:1.1469;stroke-linecap:round;stroke-linejoin:round;stroke-miterlimit:10;stroke-dasharray:none;stroke-opacity:1"
       transform="matrix(1.3333333,0,0,1.3333333,3307.6149,0)" />
    <path
       id="path2280"
       d="m 143.074,407.988 -0.808,2.36 -0.36,0.703 0.004,0.324 0.617,-1.211 0.09,-0.863 0.692,-0.336 0.55,-0.512 0.289,-0.129 0.504,0.324 0.305,0.422 1.203,2.555"
       style="fill:none;stroke:#000000;stroke-width:1.1469;stroke-linecap:round;stroke-linejoin:round;stroke-miterlimit:10;stroke-dasharray:none;stroke-opacity:1"
       transform="matrix(1.3333333,0,0,1.3333333,3307.6149,0)" />
    <path
       id="path2281"
       d="m 131.574,391.223 h 52.25"
       style="fill:none;stroke:#000000;stroke-width:1.1469;stroke-linecap:round;stroke-linejoin:round;stroke-miterlimit:10;stroke-dasharray:none;stroke-opacity:1"
       transform="matrix(1.3333333,0,0,1.3333333,3307.6149,0)" />
    <path
       id="path2282"
       d="m 182.746,390.309 -0.254,-0.375 -0.754,-0.43 -1.496,-0.309 -0.613,-0.039 -0.297,0.094 1.781,0.242 0.473,0.363 0.516,0.235 1.019,0.14 1.125,0.29 0.258,0.171 -0.063,0.184 -0.933,0.855 -0.863,0.344 -0.848,0.481 -2.285,0.199 0.211,0.117"
       style="fill:none;stroke:#000000;stroke-width:1.1469;stroke-linecap:round;stroke-linejoin:round;stroke-miterlimit:10;stroke-dasharray:none;stroke-opacity:1"
       transform="matrix(1.3333333,0,0,1.3333333,3307.6149,0)" />
    <path
       id="path2283"
       d="m 131.656,390.574 1.617,-0.777 3.211,-0.293 -0.496,0.051 -0.937,0.59 -2.207,0.386 -1.629,0.66 0.398,0.434 0.457,0.309 0.922,0.453 1.403,0.476 1.062,0.793"
       style="fill:none;stroke:#000000;stroke-width:1.1469;stroke-linecap:round;stroke-linejoin:round;stroke-miterlimit:10;stroke-dasharray:none;stroke-opacity:1"
       transform="matrix(1.3333333,0,0,1.3333333,3307.6149,0)" />
    <path
       id="path2284"
       d="m 129.98,385.711 v 16.344"
       style="fill:none;stroke:#000000;stroke-width:1.1469;stroke-linecap:round;stroke-linejoin:round;stroke-miterlimit:10;stroke-dasharray:none;stroke-opacity:1"
       transform="matrix(1.3333333,0,0,1.3333333,3307.6149,0)" />
    <path
       id="path2285"
       d="m 185.414,385.844 v 16.211"
       style="fill:none;stroke:#000000;stroke-width:1.1469;stroke-linecap:round;stroke-linejoin:round;stroke-miterlimit:10;stroke-dasharray:none;stroke-opacity:1"
       transform="matrix(1.3333333,0,0,1.3333333,3307.6149,0)" />
    <text
       xml:space="preserve"
       style="font-weight:500;font-stretch:condensed;font-size:18.8976px;line-height:32.3961px;font-family:'IBM Plex Sans Condensed';-inkscape-font-specification:'IBM Plex Sans Condensed,  Medium Condensed';letter-spacing:0px;writing-mode:lr-tb;direction:ltr;fill:#000000;fill-opacity:1;stroke:none;stroke-width:0.377953;stroke-linecap:round;stroke-linejoin:round;stroke-dasharray:none;stroke-opacity:1"
       x="3503.615"
       y="567.19983"
       id="text2296"><tspan
         id="tspan2296"
         x="3503.615"
         y="567.19983">10</tspan></text>
    <text
       xml:space="preserve"
       style="font-weight:500;font-stretch:condensed;font-size:18.8976px;line-height:32.3961px;font-family:'IBM Plex Sans Condensed';-inkscape-font-specification:'IBM Plex Sans Condensed,  Medium Condensed';text-align:center;letter-spacing:0px;writing-mode:lr-tb;direction:ltr;text-anchor:middle;fill:#000000;fill-opacity:1;stroke:none;stroke-width:0.377953;stroke-linecap:round;stroke-linejoin:round;stroke-dasharray:none;stroke-opacity:1"
       x="3517.5898"
       y="518.63428"
       id="text2297"><tspan
         id="tspan2297"
         x="3517.5898"
         y="518.63428">15</tspan></text>
  </g>
  <g
     id="sharp"
     transform="translate(-3421.1572,-127.84443)"
     style="display:inline">
    <path
       id="path2262"
       d="m 92.48,127.363 0.032,0.012 0.035,0.016 0.039,0.011 0.031,0.012 0.047,0.016 h 0.055 l 0.371,-0.067 2.769,-0.703 0.934,-0.055 1.977,0.196 0.918,-0.02 1.078,0.223 0.703,0.004 0.992,0.367 2.543,-0.016 0.914,0.168 2.547,-0.035 0.762,0.231 3.328,0.007 0.883,0.176 3.41,0.012 1.547,0.352 1.898,0.062 1.863,0.434 3.528,-0.024 0.867,-0.492 0.199,-0.578 -0.039,0.086 0.441,0.828 0.106,0.559 -0.09,1.441 0.031,4.184 0.106,0.562 0.035,1.707 -0.004,3.649 -0.68,3.48 -0.136,1.309 0.007,4.527 -0.297,1.758 0.016,1.074 -0.176,0.5 -0.172,1.539 0.008,0.531 0.551,0.266 1.512,0.238 2.093,-0.074 8.86,0.062 2.426,-0.168 1.519,0.024 1.426,0.199 3.664,-0.019 1.309,0.281 6.679,-0.047 6.196,0.289 4.523,0.051 3.172,0.332 4.184,0.015 3.972,0.157 9.024,0.035 2.445,-0.235 0.234,-0.152 -0.195,-0.75 -0.414,-0.848 -0.066,-0.617 -0.473,-0.902 -0.129,-0.965 0.031,-1.586 0.461,-1.16 0.375,-1.574 0.102,-0.863 0.226,-0.594 0.117,-2.086 0.293,-0.938 0.043,-0.898 0.313,-0.914 0.234,-1.246 0.004,-1.899 -0.215,-1 0.102,-1.914 -0.059,-2.312 -0.304,-0.785 -0.188,-1.942 0.063,-0.637 0.296,-0.843 0.079,-1.032 -0.086,-0.355 0.179,-0.227 1.047,-0.461 h 1.449 l 3.075,0.485 3.507,0.293 1.711,-0.004 1.555,0.355 2.559,0.297 8.222,0.145 1.871,0.156 8.36,0.066 -0.008,0.602"
       style="fill:none;stroke:#e5e7eb;stroke-width:11.3386;stroke-linecap:round;stroke-linejoin:round;stroke-miterlimit:10;stroke-dasharray:none;stroke-opacity:1"
       transform="matrix(1.3333333,0,0,1.3333333,3307.6149,0)" />
    <path
       id="path2257"
       d="M 91.34,122.703 H 225.781"
       style="fill:none;stroke:#000000;stroke-width:1.1469;stroke-linecap:round;stroke-linejoin:round;stroke-miterlimit:10;stroke-dasharray:none;stroke-opacity:1"
       transform="matrix(1.3333333,0,0,1.3333333,3307.6149,0)" />
    <path
       id="path2258"
       d="m 130.844,123.66 v 26.121"
       style="fill:none;stroke:#000000;stroke-width:1.1469;stroke-linecap:round;stroke-linejoin:round;stroke-miterlimit:10;stroke-dasharray:none;stroke-opacity:1"
       transform="matrix(1.3333333,0,0,1.3333333,3307.6149,0)" />
    <path
       id="path2259"
       d="m 131.48,151.059 h 52.567"
       style="fill:none;stroke:#000000;stroke-width:1.1469;stroke-linecap:round;stroke-linejoin:round;stroke-miterlimit:10;stroke-dasharray:none;stroke-opacity:1"
       transform="matrix(1.3333333,0,0,1.3333333,3307.6149,0)" />
    <path
       id="path2260"
       d="m 185.004,123.34 v 25.488"
       style="fill:none;stroke:#000000;stroke-width:1.1469;stroke-linecap:round;stroke-linejoin:round;stroke-miterlimit:10;stroke-dasharray:none;stroke-opacity:1"
       transform="matrix(1.3333333,0,0,1.3333333,3307.6149,0)" />
    <path
       id="path2261"
       d="m 130.844,103.27 v 16.246"
       style="fill:none;stroke:#000000;stroke-width:1.1469;stroke-linecap:round;stroke-linejoin:round;stroke-miterlimit:10;stroke-dasharray:none;stroke-opacity:1"
       transform="matrix(1.3333333,0,0,1.3333333,3307.6149,0)" />
    <path
       id="path2286"
       d="m 185.004,103.398 v 17.075"
       style="fill:none;stroke:#000000;stroke-width:1.1469;stroke-linecap:round;stroke-linejoin:round;stroke-miterlimit:10;stroke-dasharray:none;stroke-opacity:1"
       transform="matrix(1.3333333,0,0,1.3333333,3307.6149,0)" />
    <path
       id="path2287"
       d="m 132.531,108.637 h 50.973"
       style="fill:none;stroke:#000000;stroke-width:1.1469;stroke-linecap:round;stroke-linejoin:round;stroke-miterlimit:10;stroke-dasharray:none;stroke-opacity:1"
       transform="matrix(1.3333333,0,0,1.3333333,3307.6149,0)" />
    <path
       id="path2288"
       d="m 183.359,108.109 0.121,-0.117 -0.375,-0.207 -2.691,-0.984 1.348,0.207 1.23,0.355 1.266,0.094 -1.449,0.953 -2.414,1.008 1.375,-0.016"
       style="fill:none;stroke:#000000;stroke-width:1.1469;stroke-linecap:round;stroke-linejoin:round;stroke-miterlimit:10;stroke-dasharray:none;stroke-opacity:1"
       transform="matrix(1.3333333,0,0,1.3333333,3307.6149,0)" />
    <path
       id="path2289"
       d="m 133,107.309 0.984,-0.176 0.957,-0.383 0.727,-0.09 -1.082,0.742 -1.789,0.735 1.535,-0.645 0.875,-0.043 1.234,-0.246 -0.722,0.149 -1.371,0.554 -0.434,0.086 -0.73,0.41 0.925,0.692 1.059,0.511 0.426,-0.175"
       style="fill:none;stroke:#000000;stroke-width:1.1469;stroke-linecap:round;stroke-linejoin:round;stroke-miterlimit:10;stroke-dasharray:none;stroke-opacity:1"
       transform="matrix(1.3333333,0,0,1.3333333,3307.6149,0)" />
    <text
       xml:space="preserve"
       style="font-weight:500;font-stretch:condensed;font-size:18.8976px;line-height:32.3961px;font-family:'IBM Plex Sans Condensed';-inkscape-font-specification:'IBM Plex Sans Condensed,  Medium Condensed';text-align:center;letter-spacing:0px;writing-mode:lr-tb;direction:ltr;text-anchor:middle;display:inline;fill:#000000;fill-opacity:1;stroke:none;stroke-width:0.377953;stroke-linecap:round;stroke-linejoin:round;stroke-dasharray:none;stroke-opacity:1"
       x="3517.5898"
       y="518.63428"
       id="text2298"
       transform="translate(0.6174,-377.59932)"><tspan
         id="tspan2298"
         x="3517.5898"
         y="518.63428">15</tspan></text>
  </g>
  <g
     id="corner"
     transform="translate(-3417.9452,-390.84909)"
     style="display:inline">
    <path
       id="path2272"
       d="m 122.77,305.109 0.144,0.102 0.176,-0.004 0.222,-0.023 0.204,-0.043 0.191,-0.047 0.211,-0.055 0.195,-0.055 0.18,-0.058 0.172,-0.059 0.168,-0.058 0.316,-0.121 0.352,-0.118 0.535,-0.09 2.527,0.008 1.93,-0.25 0.527,0.004 1.602,0.375 1.394,0.195 6.114,0.141 3.996,0.305 8.164,-0.067 2.551,-0.113 2.652,0.02 2.16,-0.16 2.574,0.019 2.657,-0.168 3.535,-0.473 6.672,-0.117 9.054,0.106 1.297,0.215 1.543,-0.036 0.961,0.375 0.543,1.133 0.547,0.516 0.082,0.461 -0.078,1.004 0.043,1.441 0.113,0.617 -0.027,4.571 0.379,1.546 -0.036,2.215 0.293,2.828 -0.011,1.286 0.367,1.57 -0.051,2.726 0.211,1.204 -0.031,2.957 0.207,1.304 -0.035,2.207 0.265,1.102 -0.047,2.32 0.227,1.383 -0.152,2.59 0.027,4.152 0.117,0.891 -0.086,1.64 0.02,3.262 -0.203,1.789 0.023,2.238 0.16,1.204 -0.168,0.668 -0.285,0.347 -0.359,0.18 -3.996,0.016 -4.778,0.578 -0.547,-0.012 -1.378,-0.297 -2.282,0.074 -2.57,0.27 -3.625,0.09 -4.223,0.445 -5.066,-0.039 -1.781,0.117 -3.309,-0.211 -4.32,0.059 -1.067,0.156 -1.718,-0.019 -0.895,0.093 -1.812,-0.183 -4.5,-0.012 -0.825,0.109 -2.644,-0.023 -2.438,0.211 -13.457,-0.141 -0.113,-0.539 -0.219,-0.441 -0.043,-0.321 0.082,-0.769 0.223,-0.613 -0.129,-1.528 0.215,-0.578 0.285,-2.07 -0.262,-2.559 0.137,-2.117 -0.582,-2.32 0.027,-2.617 -0.234,-2.286 -0.008,-1.64 0.117,-0.774 -0.027,-4.203 -0.422,-1.726 -0.414,-2.829 -0.012,-2.374 0.223,-1.055 -0.047,-3.539 -0.094,-2.617 -0.293,-2.477 0.024,-0.68 0.234,-0.715 0.055,-1.148 0.68,-2.328 0.062,-1.484 0.469,-1.602 0.351,-2.016 -0.015,-1.351 0.176,-0.629 -0.039,-1.184 0.578,1.082"
       style="fill:none;stroke:#e5e7eb;stroke-width:11.3386;stroke-linecap:round;stroke-linejoin:round;stroke-miterlimit:10;stroke-dasharray:none;stroke-opacity:1"
       transform="matrix(1.3333333,0,0,1.3333333,3307.6149,0)" />
    <path
       id="path2271"
       d="m 128.395,310.816 h 55.793 v 42.016 h -55.793 z"
       style="fill:none;stroke:#000000;stroke-width:1.1469;stroke-linecap:round;stroke-linejoin:round;stroke-miterlimit:10;stroke-dasharray:none;stroke-opacity:1"
       transform="matrix(1.3333333,0,0,1.3333333,3307.6149,0)" />
    <path
       id="path2290"
       d="m 142.406,311.258 v 40.14"
       style="fill:none;stroke:#000000;stroke-width:1.1469;stroke-linecap:round;stroke-linejoin:round;stroke-miterlimit:10;stroke-dasharray:none;stroke-opacity:1"
       transform="matrix(1.3333333,0,0,1.3333333,3307.6149,0)" />
    <path
       id="path2291"
       d="m 141.273,348.988 1.028,1.985 0.078,0.39 -0.055,-0.148 0.5,-0.145 0.488,-0.558 0.594,-1.407 0.059,-0.554"
       style="fill:none;stroke:#000000;stroke-width:1.1469;stroke-linecap:round;stroke-linejoin:round;stroke-miterlimit:10;stroke-dasharray:none;stroke-opacity:1"
       transform="matrix(1.3333333,0,0,1.3333333,3307.6149,0)" />
    <path
       id="path2292"
       d="m 141.801,312.48 -0.449,1.875 -0.481,1.211 0.18,-0.543 1.183,-2.382 -0.035,0.14 0.977,1.664 0.215,1.446 0.386,0.644"
       style="fill:none;stroke:#000000;stroke-width:1.1469;stroke-linecap:round;stroke-linejoin:round;stroke-miterlimit:10;stroke-dasharray:none;stroke-opacity:1"
       transform="matrix(1.3333333,0,0,1.3333333,3307.6149,0)" />
    <text
       xml:space="preserve"
       style="font-weight:500;font-stretch:condensed;font-size:18.8976px;line-height:32.3961px;font-family:'IBM Plex Sans Condensed';-inkscape-font-specification:'IBM Plex Sans Condensed,  Medium Condensed';letter-spacing:0px;writing-mode:lr-tb;direction:ltr;display:inline;fill:#000000;fill-opacity:1;stroke:none;stroke-width:0.377953;stroke-linecap:round;stroke-linejoin:round;stroke-dasharray:none;stroke-opacity:1"
       x="3501.1826"
       y="449.14993"
       id="text2299"><tspan
         id="tspan2299"
         x="3501.1826"
         y="449.14993">10</tspan></text>
  </g>
</svg>
